<svg width="21" height="20" viewBox="0 0 21 20" fill="none" xmlns="http://www.w3.org/2000/svg">
<path d="M10.3286 0.625011C4.80358 0.625011 0.328583 4.98669 0.328583 10.3661C0.328583 14.6708 3.19358 18.3212 7.16608 19.6082C7.66608 19.6999 7.84942 19.3984 7.84942 19.1398C7.84942 18.9085 7.84108 18.2956 7.83692 17.4835C5.05525 18.0709 4.46858 16.1767 4.46858 16.1767C4.01358 15.0524 3.35608 14.7517 3.35608 14.7517C2.45025 14.1479 3.42608 14.1602 3.42608 14.1602C4.43025 14.228 4.95775 15.1639 4.95775 15.1639C5.84942 16.6533 7.29858 16.223 7.87025 15.9743C7.96025 15.344 8.21775 14.9153 8.50358 14.6716C6.28275 14.4279 3.94858 13.5903 3.94858 9.85805C3.94858 8.79489 4.33608 7.92586 4.97775 7.24435C4.86525 6.99818 4.52775 6.00771 5.06525 4.66617C5.06525 4.66617 5.90275 4.40513 7.81525 5.66489C8.61525 5.44846 9.46525 5.34107 10.3152 5.33611C11.1652 5.34107 12.0152 5.44846 12.8152 5.66489C14.7152 4.40513 15.5527 4.66617 15.5527 4.66617C16.0902 6.00771 15.7527 6.99818 15.6527 7.24435C16.2902 7.92586 16.6777 8.79489 16.6777 9.85805C16.6777 13.6002 14.3402 14.4238 12.1152 14.6633C12.4652 14.9558 12.7902 15.553 12.7902 16.4658C12.7902 17.7694 12.7777 18.8168 12.7777 19.1332C12.7777 19.3885 12.9527 19.6933 13.4652 19.5958C17.4661 18.3171 20.3286 14.6641 20.3286 10.3661C20.3286 4.98669 15.8511 0.625011 10.3286 0.625011Z" fill="black"/>
</svg>
