<svg width="21" height="21" viewBox="0 0 21 21" fill="none" xmlns="http://www.w3.org/2000/svg">
<path d="M14.0781 0.625011H6.57809C3.12684 0.625011 0.328094 3.42376 0.328094 6.87501V14.375C0.328094 17.8263 3.12684 20.625 6.57809 20.625H14.0781C17.5293 20.625 20.3281 17.8263 20.3281 14.375V6.87501C20.3281 3.42376 17.5293 0.625011 14.0781 0.625011ZM18.4531 14.375C18.4531 16.7875 16.4906 18.75 14.0781 18.75H6.57809C4.16559 18.75 2.20309 16.7875 2.20309 14.375V6.87501C2.20309 4.46251 4.16559 2.50001 6.57809 2.50001H14.0781C16.4906 2.50001 18.4531 4.46251 18.4531 6.87501V14.375Z" fill="white"/>
<path d="M10.3281 5.62501C7.56684 5.62501 5.32809 7.86376 5.32809 10.625C5.32809 13.3863 7.56684 15.625 10.3281 15.625C13.0893 15.625 15.3281 13.3863 15.3281 10.625C15.3281 7.86376 13.0893 5.62501 10.3281 5.62501ZM10.3281 13.75C8.60559 13.75 7.20309 12.3475 7.20309 10.625C7.20309 8.90126 8.60559 7.50001 10.3281 7.50001C12.0506 7.50001 13.4531 8.90126 13.4531 10.625C13.4531 12.3475 12.0506 13.75 10.3281 13.75Z" fill="white"/>
<path d="M15.7031 5.91625C16.0711 5.91625 16.3693 5.61796 16.3693 5.25C16.3693 4.88204 16.0711 4.58375 15.7031 4.58375C15.3351 4.58375 15.0368 4.88204 15.0368 5.25C15.0368 5.61796 15.3351 5.91625 15.7031 5.91625Z" fill="white"/>
</svg>
